HIERARCHY
ROOT Hips
{
	OFFSET 0.000000 0.000000 0.000000 
	CHANNELS 6 Xposition Yposition Zposition Yrotation Zrotation Xrotation 
	JOINT Lumbar
	{
		OFFSET 0.000000 0.000000 0.000000 
		CHANNELS 3 Zrotation Xrotation Yrotation
		JOINT Neck
		{
			OFFSET 0.000000 0.445665 0.000000 
			CHANNELS 3 Zrotation Xrotation Yrotation
			End Site
			{
				OFFSET 0.000000 0.227535 0.000000 
			}
		}
		JOINT RightShoulder
		{
			OFFSET 0.019635 0.377685 0.194865 
			CHANNELS 3 Zrotation Xrotation Yrotation
			JOINT RightElbow
			{
				OFFSET 0.000000 -0.243375 0.000000 
				CHANNELS 2 Zrotation Yrotation
				JOINT RightWrist
				{
					OFFSET 0.000000 -0.264825 0.000000 
					CHANNELS 2 Zrotation Xrotation
					End Site
					{
						OFFSET 0.006600 -0.176220 0.000990 
					}
				}
			}
		}
		JOINT LeftShoulder
		{
			OFFSET 0.019635 0.377685 -0.194865 
			CHANNELS 3 Zrotation Xrotation Yrotation
			JOINT LeftElbow
			{
				OFFSET 0.000000 -0.243375 0.000000 
				CHANNELS 2 Zrotation Yrotation
				JOINT LeftWrist
				{
					OFFSET 0.000000 -0.264825 0.000000 
					CHANNELS 2 Zrotation Xrotation
					End Site
					{
						OFFSET 0.006600 -0.176220 -0.000990 
					}
				}
			}
		}
	}
	JOINT RightHip
	{
		OFFSET 0.052140 -0.069960 0.075570 
		CHANNELS 3 Zrotation Xrotation Yrotation
		JOINT RightKnee
		{
			OFFSET 0.000000 -0.402270 0.000000 
			CHANNELS 1 Zrotation
			JOINT RightAnkle
			{
				OFFSET 0.000000 -0.404085 0.000000 
				CHANNELS 3 Zrotation Xrotation Yrotation
				End Site
				{
					OFFSET 0.204105 -0.089430 0.008415 
				}
			}
		}
	}
	JOINT LeftHip
	{
		OFFSET 0.052140 -0.069960 -0.075570 
		CHANNELS 3 Zrotation Xrotation Yrotation
		JOINT LeftKnee
		{
			OFFSET 0.000000 -0.402270 0.000000 
			CHANNELS 1 Zrotation
			JOINT LeftAnkle
			{
				OFFSET 0.000000 -0.404085 0.000000 
				CHANNELS 3 Zrotation Xrotation Yrotation
				End Site
				{
					OFFSET 0.204105 -0.089430 -0.008415 
				}
			}
		}
	}
}
MOTION
Frames: 22
Frame Time: 0.02
0.26534 -0.00151 0.67262 171.52671 -52.41989 -6.78655 47.17317 0.92313 7.37798 3.32676 2.5878 -0.83079 15.72394 -50.98711 43.91204 94.35323 57.80633 16.24736 -8.17643 -23.8346 9.96608 -2.59577 29.54283 -101.53503 13.76215 -0.54774 35.09532 -6.81959 -3.01563 -26.10077 -7.04167 -0.51687 -0.86172 70.75264 1.09624 4.18366 -27.44352 -10.99614 3.15743 2.50539
0.2456 -0.00365 0.67858 171.61702 -52.48869 -6.43211 47.72397 0.67633 7.28805 3.21847 2.39505 -0.83079 14.12165 -50.96668 42.61393 94.84749 59.99872 15.72464 -7.73583 -23.09891 10.58878 -2.3988 29.06229 -101.31965 14.01084 -0.46816 34.57653 -7.5366 -2.43845 -26.64689 -7.40672 -0.41536 -0.8176 69.76705 0.48309 4.74163 -27.77598 -10.72634 3.18327 2.50452
0.22545 -0.00532 0.68442 171.86801 -52.51202 -6.02335 48.29103 0.40832 7.12735 3.03028 2.23604 -0.83079 12.41522 -50.99711 41.33706 95.34593 62.70881 14.92764 -7.35278 -22.33094 11.21788 -2.12449 28.60923 -100.90295 14.3265 -0.33729 34.17152 -8.2451 -1.83216 -27.419 -7.86721 -0.29247 -0.76497 68.5563 -0.1092 5.58508 -27.9577 -10.32605 3.24259 2.51606
0.20558 -0.00721 0.69031 172.04616 -52.54819 -5.64376 48.83951 0.15305 6.98793 2.88068 2.06079 -0.83079 10.78613 -51.00156 40.07313 95.83405 65.1063 14.28417 -6.95175 -21.5711 11.84129 -1.89826 28.14501 -100.54003 14.58546 -0.22601 33.75891 -8.95125 -1.23661 -28.15032 -8.29576 -0.17899 -0.71619 67.43224 -0.70287 6.31203 -28.19274 -9.99101 3.27954 2.51843
0.18526 -0.00906 0.69625 172.22776 -52.61927 -5.24016 49.4414 -0.11657 6.89555 2.71944 1.88756 -0.83079 9.01718 -51.0184 38.7005 96.3609 67.83393 13.52307 -6.50703 -20.83614 12.47907 -1.61114 27.66709 -100.33032 14.95182 -0.13034 33.15911 -9.68796 -0.64101 -28.62239 -8.68193 -0.0663 -0.66731 66.36901 -1.33533 6.98965 -28.50118 -9.63406 3.34527 2.53508
0.1658 -0.01089 0.70202 172.43975 -52.60652 -4.87612 49.93248 -0.3609 6.68617 2.56505 1.71937 -0.83079 7.5226 -51.02104 37.5662 96.80578 69.99702 12.93895 -6.17007 -20.04195 13.08721 -1.43616 27.22849 -99.76922 15.11419 0.00762 32.9784 -10.3555 -0.04516 -29.68471 -9.1719 0.05188 -0.61714 65.12873 -1.88118 7.82569 -28.61744 -9.29101 3.36063 2.52576
0.14864 -0.01283 0.70745 172.68357 -52.36877 -4.62844 50.12652 -0.5294 6.19354 2.43933 1.55031 -0.83079 6.77684 -50.97686 37.0627 97.03702 70.45498 12.92593 -6.12234 -19.102 13.61436 -1.57514 26.87812 -98.11701 14.66522 0.28012 33.90468 -10.85682 0.57341 -32.34894 -9.98559 0.19272 -0.55982 63.44075 -2.18075 9.15021 -28.23884 -9.01242 3.21501 2.43425
0.13239 -0.01476 0.71269 172.95399 -52.04895 -4.42428 50.20539 -0.67155 5.58198 2.32525 1.38659 -0.83079 6.3182 -50.91609 36.80361 97.18316 70.32981 13.09723 -6.18145 -18.10226 14.11045 -1.83374 26.5703 -96.14406 14.01393 0.58892 35.25244 -11.28429 1.18347 -35.59073 -10.88924 0.33596 -0.50256 61.5858 -2.39477 10.60393 -27.67103 -8.75288 3.0199 2.31745
0.11583 -0.01668 0.71794 173.21993 -51.7692 -4.20479 50.3278 -0.82628 5.00965 2.21241 1.22486 -0.83079 5.75258 -50.8593 36.44924 97.35855 70.48369 13.1737 -6.18921 -17.12389 14.61915 -2.047 26.25233 -94.43384 13.477 0.86055 36.42225 -11.73034 1.77876 -38.55495 -11.71185 0.47001 -0.44883 59.8166 -2.65586 11.91787 -27.18901 -8.48791 2.85671 2.21722
0.09883 -0.01863 0.72348 173.4597 -51.47549 -3.96432 50.48797 -0.97975 4.49555 2.06917 1.04553 -0.83079 5.08566 -50.81788 36.03047 97.57242 70.59651 13.28734 -6.2104 -16.1687 15.13542 -2.21659 25.89461 -92.24135 12.85066 1.2179 37.54019 -12.23927 2.45891 -41.60582 -12.70679 0.63951 -0.3795 57.99663 -2.88408 13.57751 -26.70217 -8.20483 2.65577 2.09641
0.08296 -0.02052 0.72837 173.75786 -51.19286 -3.77886 50.54198 -1.12864 3.83515 1.99311 0.90385 -0.83079 4.69712 -50.74164 35.80148 97.68773 70.64955 13.37091 -6.22853 -15.15161 15.62729 -2.51006 25.63169 -90.95667 12.35801 1.4088 38.86284 -12.59994 2.95356 -44.59155 -13.36358 0.73484 -0.34313 56.24719 -3.15778 14.55216 -26.18305 -7.9657 2.52016 2.01176
0.06988 -0.02225 0.73154 174.21262 -50.95349 -3.73263 50.33013 -1.2768 2.78105 2.09982 0.86336 -0.83079 5.02701 -50.55808 36.0555 97.53577 70.6772 13.32768 -6.20992 -13.97821 16.06842 -3.08641 25.60161 -92.46004 12.31569 1.09492 40.66347 -12.56713 2.99276 -47.41297 -13.05902 0.63005 -0.39474 54.72228 -3.6033 13.53186 -25.61563 -7.84351 2.58654 2.03797
0.05792 -0.02391 0.73405 174.72402 -50.72987 -3.74066 50.0156 -1.42019 1.58812 2.27416 0.86069 -0.83079 5.62383 -50.34286 36.48834 97.29077 70.66256 13.24903 -6.18469 -12.74538 16.48383 -3.78867 25.66897 -94.85374 12.40934 0.61839 42.65158 -12.38775 2.83614 -50.11596 -12.41225 0.44958 -0.48006 53.27759 -4.0932 11.82925 -25.02406 -7.76551 2.71854 2.10055
0.04549 -0.02559 0.73683 175.20747 -50.5039 -3.72577 49.74846 -1.56201 0.4709 2.41785 0.84149 -0.83079 6.08607 -50.15161 36.82713 97.09839 70.66688 13.18702 -6.1636 -11.53916 16.90573 -4.45411 25.70349 -96.70456 12.41873 0.24037 44.54351 -12.27738 2.73188 -52.77229 -11.9245 0.30008 -0.552 51.80425 -4.54593 10.48529 -24.44779 -7.66776 2.81401 2.14319
0.03294 -0.02729 0.73972 175.70139 -50.25404 -3.70605 49.47384 -1.71847 -0.70555 2.56143 0.81969 -0.83079 6.61489 -49.91847 37.22911 96.85824 70.6531 13.12865 -6.14145 -10.32995 17.35065 -5.04013 25.69046 -99.11731 12.5131 -0.23851 46.49852 -12.15573 2.778 -55.88336 -11.42248 0.16468 -0.61594 50.29089 -5.06627 8.9429 -23.84635 -7.56915 2.93569 2.19911
0.02089 -0.02896 0.74223 176.18644 -50.05961 -3.70742 49.19241 -1.84395 -1.78783 2.72127 0.81224 -0.83079 7.06398 -49.76641 37.53791 96.69807 70.67347 13.05233 -6.11861 -9.11687 17.73923 -5.81668 25.79997 -100.58843 12.46896 -0.5485 48.35871 -12.02191 2.46951 -57.9988 -10.8711 -0.01752 -0.7043 48.8835 -5.4589 7.64762 -23.29436 -7.48265 3.01953 2.23663
0.00995 -0.03054 0.7439 176.63399 -50.00784 -3.76448 48.91388 -1.88246 -2.59413 2.90877 0.83508 -0.83079 7.23302 -49.83659 37.55217 96.76936 70.80621 12.93215 -6.09476 -7.88118 18.0014 -7.11638 26.2155 -99.13141 11.9802 -0.33469 49.93081 -11.9065 1.18782 -57.50274 -10.2371 -0.31573 -0.85413 47.73901 -5.47579 7.22313 -22.88368 -7.41837 2.97817 2.21209
-0.00053 -0.03211 0.74519 177.07028 -50.01307 -3.83858 48.63343 -1.89054 -3.29676 3.11039 0.8711 -0.83079 7.31048 -49.99152 37.4645 96.92699 70.97399 12.79542 -6.07044 -6.64945 18.20348 -8.59779 26.75192 -96.71919 11.35435 0.0511 51.39573 -11.78148 -0.43508 -55.9881 -9.57005 -0.65751 -1.02697 46.70125 -5.36517 7.06721 -22.52487 -7.36476 2.89746 2.1683
-0.01122 -0.03371 0.74662 177.51108 -49.99678 -3.89777 48.3565 -1.91438 -4.03459 3.3059 0.90103 -0.83079 7.42451 -50.11358 37.41742 97.05356 71.12643 12.66652 -6.04575 -5.43286 18.4184 -9.97707 27.2389 -94.8169 10.81051 0.34656 52.89403 -11.65032 -1.87557 -54.86225 -8.93776 -0.97584 -1.18775 45.62196 -5.3216 6.77223 -22.14397 -7.30644 2.83822 2.13508
-0.02186 -0.03518 0.74815 177.9567 -49.96201 -3.98956 48.06411 -1.92995 -4.82819 3.50237 0.93247 -0.83079 7.56812 -50.20974 37.39907 97.14253 71.28377 12.53262 -6.0217 -4.14035 18.69412 -11.443 27.7079 -92.62128 10.1857 0.68829 54.4617 -11.55736 -3.44264 -54.03496 -8.2116 -1.31203 -1.35639 44.5155 -5.24179 6.52108 -21.75554 -7.24901 2.76661 2.09568
-0.0325 -0.03693 0.7494 178.38853 -49.97964 -4.01624 47.80561 -1.95554 -5.47848 3.69946 0.96372 -0.83079 7.62641 -50.38158 37.29665 97.33125 71.4283 12.40891 -5.99837 -3.01058 18.8285 -12.77041 28.23952 -90.8033 9.6982 0.97592 55.85965 -11.38571 -4.81917 -52.35862 -7.67588 -1.62061 -1.51379 43.49048 -5.20575 6.25661 -21.39585 -7.19176 2.70995 2.0638
-0.0432 -0.0394 0.75 178.78834 -50.12308 -3.86321 47.63516 -2.01651 -5.76398 3.89272 0.98833 -0.83079 7.45657 -50.73133 36.96553 97.77705 71.6327 12.28906 -5.9585 -2.30549 18.59443 -13.66619 28.9343 -90.21332 9.59836 1.07906 56.78829 -10.98963 -5.63205 -48.47461 -7.69002 -1.83962 -1.63331 42.6594 -5.32855 5.84748 -21.10004 -7.1317 2.70912 2.06001
